<mxfile host="app.diagrams.net" agent="Mozilla/5.0 (Windows NT 10.0; Win64; x64) AppleWebKit/537.36 (KHTML, like Gecko) Chrome/131.0.0.0 Safari/537.36" version="26.0.5">
  <diagram name="Page-1" id="euoYH-qXSXu2b9FvUqVr">
    <mxGraphModel dx="1687" dy="929" grid="0" gridSize="10" guides="1" tooltips="1" connect="1" arrows="1" fold="1" page="0" pageScale="1" pageWidth="850" pageHeight="1100" math="0" shadow="0">
      <root>
        <mxCell id="0" />
        <mxCell id="1" parent="0" />
        <mxCell id="dmQyqVibtAXGjiy5FNRY-1" value="" style="whiteSpace=wrap;html=1;aspect=fixed;" vertex="1" parent="1">
          <mxGeometry x="170" y="120" width="744" height="744" as="geometry" />
        </mxCell>
        <mxCell id="dmQyqVibtAXGjiy5FNRY-2" value="CHATWAVE" style="text;html=1;align=center;verticalAlign=middle;whiteSpace=wrap;rounded=0;fontSize=20;" vertex="1" parent="1">
          <mxGeometry x="512" y="120" width="60" height="30" as="geometry" />
        </mxCell>
        <mxCell id="dmQyqVibtAXGjiy5FNRY-3" value="User" style="shape=umlActor;verticalLabelPosition=bottom;verticalAlign=top;html=1;outlineConnect=0;" vertex="1" parent="1">
          <mxGeometry x="26" y="381" width="80" height="150" as="geometry" />
        </mxCell>
        <mxCell id="dmQyqVibtAXGjiy5FNRY-4" value="Admin" style="shape=umlActor;verticalLabelPosition=bottom;verticalAlign=top;html=1;outlineConnect=0;" vertex="1" parent="1">
          <mxGeometry x="952" y="550" width="90" height="150" as="geometry" />
        </mxCell>
        <mxCell id="dmQyqVibtAXGjiy5FNRY-5" value="Delete Chat Messages" style="ellipse;whiteSpace=wrap;html=1;" vertex="1" parent="1">
          <mxGeometry x="698" y="507.5" width="130" height="53.5" as="geometry" />
        </mxCell>
        <mxCell id="dmQyqVibtAXGjiy5FNRY-6" value="Update ChatRooms" style="ellipse;whiteSpace=wrap;html=1;" vertex="1" parent="1">
          <mxGeometry x="675" y="584.5" width="130" height="60" as="geometry" />
        </mxCell>
        <mxCell id="dmQyqVibtAXGjiy5FNRY-7" value="Create ChatRoom" style="ellipse;whiteSpace=wrap;html=1;" vertex="1" parent="1">
          <mxGeometry x="546" y="712" width="110" height="40" as="geometry" />
        </mxCell>
        <mxCell id="dmQyqVibtAXGjiy5FNRY-8" value="Delete ChatRoom" style="ellipse;whiteSpace=wrap;html=1;" vertex="1" parent="1">
          <mxGeometry x="671" y="712" width="110" height="40" as="geometry" />
        </mxCell>
        <mxCell id="dmQyqVibtAXGjiy5FNRY-9" value="Update ChatRoom" style="ellipse;whiteSpace=wrap;html=1;" vertex="1" parent="1">
          <mxGeometry x="795" y="714" width="110" height="40" as="geometry" />
        </mxCell>
        <mxCell id="dmQyqVibtAXGjiy5FNRY-10" value="" style="edgeStyle=none;html=1;endSize=12;endArrow=block;endFill=0;rounded=0;exitX=0.691;exitY=0.113;exitDx=0;exitDy=0;exitPerimeter=0;entryX=0.331;entryY=0.933;entryDx=0;entryDy=0;entryPerimeter=0;" edge="1" parent="1" source="dmQyqVibtAXGjiy5FNRY-7" target="dmQyqVibtAXGjiy5FNRY-6">
          <mxGeometry width="160" relative="1" as="geometry">
            <mxPoint x="430" y="420" as="sourcePoint" />
            <mxPoint x="590" y="420" as="targetPoint" />
          </mxGeometry>
        </mxCell>
        <mxCell id="dmQyqVibtAXGjiy5FNRY-11" value="" style="edgeStyle=none;html=1;endSize=12;endArrow=block;endFill=0;rounded=0;exitX=0.5;exitY=0;exitDx=0;exitDy=0;entryX=0.5;entryY=1;entryDx=0;entryDy=0;" edge="1" parent="1" source="dmQyqVibtAXGjiy5FNRY-8" target="dmQyqVibtAXGjiy5FNRY-6">
          <mxGeometry width="160" relative="1" as="geometry">
            <mxPoint x="501" y="631" as="sourcePoint" />
            <mxPoint x="563" y="586" as="targetPoint" />
          </mxGeometry>
        </mxCell>
        <mxCell id="dmQyqVibtAXGjiy5FNRY-12" value="" style="edgeStyle=none;html=1;endSize=12;endArrow=block;endFill=0;rounded=0;exitX=0.309;exitY=0.063;exitDx=0;exitDy=0;exitPerimeter=0;entryX=1;entryY=1;entryDx=0;entryDy=0;" edge="1" parent="1" source="dmQyqVibtAXGjiy5FNRY-9" target="dmQyqVibtAXGjiy5FNRY-6">
          <mxGeometry width="160" relative="1" as="geometry">
            <mxPoint x="511" y="641" as="sourcePoint" />
            <mxPoint x="573" y="596" as="targetPoint" />
          </mxGeometry>
        </mxCell>
        <mxCell id="dmQyqVibtAXGjiy5FNRY-13" value="" style="endArrow=none;html=1;rounded=0;entryX=1;entryY=0.5;entryDx=0;entryDy=0;exitX=0.5;exitY=0.5;exitDx=0;exitDy=0;exitPerimeter=0;" edge="1" parent="1" source="dmQyqVibtAXGjiy5FNRY-4" target="dmQyqVibtAXGjiy5FNRY-5">
          <mxGeometry width="50" height="50" relative="1" as="geometry">
            <mxPoint x="90" y="362" as="sourcePoint" />
            <mxPoint x="270" y="199" as="targetPoint" />
          </mxGeometry>
        </mxCell>
        <mxCell id="dmQyqVibtAXGjiy5FNRY-14" value="" style="endArrow=none;html=1;rounded=0;entryX=1;entryY=0.5;entryDx=0;entryDy=0;exitX=0.5;exitY=0.5;exitDx=0;exitDy=0;exitPerimeter=0;" edge="1" parent="1" source="dmQyqVibtAXGjiy5FNRY-4" target="dmQyqVibtAXGjiy5FNRY-6">
          <mxGeometry width="50" height="50" relative="1" as="geometry">
            <mxPoint x="890" y="600" as="sourcePoint" />
            <mxPoint x="690" y="467" as="targetPoint" />
          </mxGeometry>
        </mxCell>
        <mxCell id="dmQyqVibtAXGjiy5FNRY-15" value="Send Messages in ChatRoom" style="ellipse;whiteSpace=wrap;html=1;" vertex="1" parent="1">
          <mxGeometry x="230" y="203" width="130" height="53.5" as="geometry" />
        </mxCell>
        <mxCell id="dmQyqVibtAXGjiy5FNRY-17" value="Create Custom ChatRoom" style="ellipse;whiteSpace=wrap;html=1;" vertex="1" parent="1">
          <mxGeometry x="230" y="289" width="130" height="53.5" as="geometry" />
        </mxCell>
        <mxCell id="dmQyqVibtAXGjiy5FNRY-18" value="Filter Message" style="ellipse;whiteSpace=wrap;html=1;" vertex="1" parent="1">
          <mxGeometry x="448" y="186" width="130" height="53.5" as="geometry" />
        </mxCell>
        <mxCell id="dmQyqVibtAXGjiy5FNRY-19" value="Check ChatRoom Limit&amp;nbsp;" style="ellipse;whiteSpace=wrap;html=1;" vertex="1" parent="1">
          <mxGeometry x="457" y="267.5" width="130" height="53.5" as="geometry" />
        </mxCell>
        <mxCell id="dmQyqVibtAXGjiy5FNRY-20" value="" style="endArrow=none;html=1;rounded=0;exitX=0;exitY=0.5;exitDx=0;exitDy=0;entryX=0.5;entryY=0.5;entryDx=0;entryDy=0;entryPerimeter=0;" edge="1" parent="1" source="dmQyqVibtAXGjiy5FNRY-15" target="dmQyqVibtAXGjiy5FNRY-3">
          <mxGeometry width="50" height="50" relative="1" as="geometry">
            <mxPoint x="905" y="605" as="sourcePoint" />
            <mxPoint x="90" y="345" as="targetPoint" />
          </mxGeometry>
        </mxCell>
        <mxCell id="dmQyqVibtAXGjiy5FNRY-21" value="" style="endArrow=none;html=1;rounded=0;entryX=0.5;entryY=0.5;entryDx=0;entryDy=0;exitX=0;exitY=0.5;exitDx=0;exitDy=0;entryPerimeter=0;" edge="1" parent="1" source="dmQyqVibtAXGjiy5FNRY-17" target="dmQyqVibtAXGjiy5FNRY-3">
          <mxGeometry width="50" height="50" relative="1" as="geometry">
            <mxPoint x="915" y="615" as="sourcePoint" />
            <mxPoint x="780" y="537" as="targetPoint" />
          </mxGeometry>
        </mxCell>
        <mxCell id="dmQyqVibtAXGjiy5FNRY-22" value="&amp;lt;&amp;lt;include&amp;gt;&amp;gt;" style="html=1;verticalAlign=bottom;labelBackgroundColor=none;endArrow=open;endFill=0;dashed=1;rounded=0;exitX=1;exitY=0.5;exitDx=0;exitDy=0;entryX=0;entryY=0.5;entryDx=0;entryDy=0;" edge="1" parent="1" source="dmQyqVibtAXGjiy5FNRY-15" target="dmQyqVibtAXGjiy5FNRY-18">
          <mxGeometry width="160" relative="1" as="geometry">
            <mxPoint x="664" y="211" as="sourcePoint" />
            <mxPoint x="778" y="224" as="targetPoint" />
          </mxGeometry>
        </mxCell>
        <mxCell id="dmQyqVibtAXGjiy5FNRY-23" value="&amp;lt;&amp;lt;include&amp;gt;&amp;gt;" style="html=1;verticalAlign=bottom;labelBackgroundColor=none;endArrow=open;endFill=0;dashed=1;rounded=0;exitX=1;exitY=0.5;exitDx=0;exitDy=0;entryX=0;entryY=0.5;entryDx=0;entryDy=0;" edge="1" parent="1" source="dmQyqVibtAXGjiy5FNRY-17" target="dmQyqVibtAXGjiy5FNRY-19">
          <mxGeometry width="160" relative="1" as="geometry">
            <mxPoint x="674" y="221" as="sourcePoint" />
            <mxPoint x="788" y="234" as="targetPoint" />
          </mxGeometry>
        </mxCell>
        <mxCell id="dmQyqVibtAXGjiy5FNRY-24" value="Send GIFs and images" style="ellipse;whiteSpace=wrap;html=1;" vertex="1" parent="1">
          <mxGeometry x="230" y="375" width="130" height="53.5" as="geometry" />
        </mxCell>
        <mxCell id="dmQyqVibtAXGjiy5FNRY-25" value="" style="endArrow=none;html=1;rounded=0;entryX=0.5;entryY=0.5;entryDx=0;entryDy=0;exitX=0.038;exitY=0.636;exitDx=0;exitDy=0;entryPerimeter=0;exitPerimeter=0;" edge="1" parent="1" source="dmQyqVibtAXGjiy5FNRY-24" target="dmQyqVibtAXGjiy5FNRY-3">
          <mxGeometry width="50" height="50" relative="1" as="geometry">
            <mxPoint x="230" y="367" as="sourcePoint" />
            <mxPoint x="100" y="355" as="targetPoint" />
          </mxGeometry>
        </mxCell>
        <mxCell id="dmQyqVibtAXGjiy5FNRY-26" value="Delete Message" style="ellipse;whiteSpace=wrap;html=1;" vertex="1" parent="1">
          <mxGeometry x="230" y="454" width="130" height="53.5" as="geometry" />
        </mxCell>
        <mxCell id="dmQyqVibtAXGjiy5FNRY-27" value="" style="endArrow=none;html=1;rounded=0;entryX=0.5;entryY=0.5;entryDx=0;entryDy=0;exitX=0;exitY=0.5;exitDx=0;exitDy=0;entryPerimeter=0;" edge="1" parent="1" source="dmQyqVibtAXGjiy5FNRY-26" target="dmQyqVibtAXGjiy5FNRY-3">
          <mxGeometry width="50" height="50" relative="1" as="geometry">
            <mxPoint x="245" y="444" as="sourcePoint" />
            <mxPoint x="100" y="355" as="targetPoint" />
          </mxGeometry>
        </mxCell>
        <mxCell id="dmQyqVibtAXGjiy5FNRY-28" value="Mention Other Users&amp;nbsp;" style="ellipse;whiteSpace=wrap;html=1;" vertex="1" parent="1">
          <mxGeometry x="230" y="531" width="130" height="53.5" as="geometry" />
        </mxCell>
        <mxCell id="dmQyqVibtAXGjiy5FNRY-29" value="Send Notification" style="ellipse;whiteSpace=wrap;html=1;" vertex="1" parent="1">
          <mxGeometry x="467" y="375" width="130" height="53.5" as="geometry" />
        </mxCell>
        <mxCell id="dmQyqVibtAXGjiy5FNRY-30" value="&amp;lt;&amp;lt;include&amp;gt;&amp;gt;" style="html=1;verticalAlign=bottom;labelBackgroundColor=none;endArrow=open;endFill=0;dashed=1;rounded=0;exitX=1;exitY=0.5;exitDx=0;exitDy=0;entryX=0;entryY=1;entryDx=0;entryDy=0;" edge="1" parent="1" source="dmQyqVibtAXGjiy5FNRY-28" target="dmQyqVibtAXGjiy5FNRY-29">
          <mxGeometry width="160" relative="1" as="geometry">
            <mxPoint x="370" y="355" as="sourcePoint" />
            <mxPoint x="465" y="339" as="targetPoint" />
          </mxGeometry>
        </mxCell>
        <mxCell id="dmQyqVibtAXGjiy5FNRY-31" value="" style="endArrow=none;html=1;rounded=0;entryX=0.5;entryY=0.5;entryDx=0;entryDy=0;exitX=0;exitY=0.5;exitDx=0;exitDy=0;entryPerimeter=0;" edge="1" parent="1" source="dmQyqVibtAXGjiy5FNRY-28" target="dmQyqVibtAXGjiy5FNRY-3">
          <mxGeometry width="50" height="50" relative="1" as="geometry">
            <mxPoint x="252" y="503" as="sourcePoint" />
            <mxPoint x="90" y="406" as="targetPoint" />
          </mxGeometry>
        </mxCell>
        <mxCell id="dmQyqVibtAXGjiy5FNRY-33" value="Add Users To Custom ChatRoom" style="ellipse;whiteSpace=wrap;html=1;" vertex="1" parent="1">
          <mxGeometry x="230" y="616.5" width="130" height="53.5" as="geometry" />
        </mxCell>
        <mxCell id="dmQyqVibtAXGjiy5FNRY-34" value="" style="endArrow=none;html=1;rounded=0;entryX=0.5;entryY=0.5;entryDx=0;entryDy=0;exitX=0;exitY=0.5;exitDx=0;exitDy=0;entryPerimeter=0;" edge="1" parent="1" source="dmQyqVibtAXGjiy5FNRY-33" target="dmQyqVibtAXGjiy5FNRY-3">
          <mxGeometry width="50" height="50" relative="1" as="geometry">
            <mxPoint x="240" y="568" as="sourcePoint" />
            <mxPoint x="76" y="466" as="targetPoint" />
          </mxGeometry>
        </mxCell>
        <mxCell id="dmQyqVibtAXGjiy5FNRY-35" value="Verify User Access" style="ellipse;whiteSpace=wrap;html=1;" vertex="1" parent="1">
          <mxGeometry x="455" y="520" width="130" height="53.5" as="geometry" />
        </mxCell>
        <mxCell id="dmQyqVibtAXGjiy5FNRY-36" value="&amp;lt;&amp;lt;include&amp;gt;&amp;gt;" style="html=1;verticalAlign=bottom;labelBackgroundColor=none;endArrow=open;endFill=0;dashed=1;rounded=0;exitX=1;exitY=0.5;exitDx=0;exitDy=0;entryX=0;entryY=1;entryDx=0;entryDy=0;" edge="1" parent="1" target="dmQyqVibtAXGjiy5FNRY-35" source="dmQyqVibtAXGjiy5FNRY-33">
          <mxGeometry width="160" relative="1" as="geometry">
            <mxPoint x="370" y="568" as="sourcePoint" />
            <mxPoint x="475" y="349" as="targetPoint" />
          </mxGeometry>
        </mxCell>
        <mxCell id="dmQyqVibtAXGjiy5FNRY-38" style="edgeStyle=orthogonalEdgeStyle;rounded=0;orthogonalLoop=1;jettySize=auto;html=1;exitX=0.5;exitY=1;exitDx=0;exitDy=0;" edge="1" parent="1" source="dmQyqVibtAXGjiy5FNRY-9" target="dmQyqVibtAXGjiy5FNRY-9">
          <mxGeometry relative="1" as="geometry" />
        </mxCell>
      </root>
    </mxGraphModel>
  </diagram>
</mxfile>
